<?xml version="1.0" standalone="yes"?><svg xmlns="http://www.w3.org/2000/svg" version="1.1" width="205" height="205" viewBox="0 0 205 205" shape-rendering="crispEdges"><rect x="0" y="0" width="205" height="205" fill="#ffffff"/><path fill="#000000" d="M20 20h5v5H20V20M25 20h5v5H25V20M30 20h5v5H30V20M35 20h5v5H35V20M40 20h5v5H40V20M45 20h5v5H45V20M50 20h5v5H50V20M65 20h5v5H65V20M70 20h5v5H70V20M85 20h5v5H85V20M90 20h5v5H90V20M95 20h5v5H95V20M100 20h5v5H100V20M105 20h5v5H105V20M115 20h5v5H115V20M120 20h5v5H120V20M135 20h5v5H135V20M150 20h5v5H150V20M155 20h5v5H155V20M160 20h5v5H160V20M165 20h5v5H165V20M170 20h5v5H170V20M175 20h5v5H175V20M180 20h5v5H180V20M20 25h5v5H20V25M50 25h5v5H50V25M65 25h5v5H65V25M75 25h5v5H75V25M80 25h5v5H80V25M85 25h5v5H85V25M90 25h5v5H90V25M95 25h5v5H95V25M100 25h5v5H100V25M105 25h5v5H105V25M120 25h5v5H120V25M130 25h5v5H130V25M140 25h5v5H140V25M150 25h5v5H150V25M180 25h5v5H180V25M20 30h5v5H20V30M30 30h5v5H30V30M35 30h5v5H35V30M40 30h5v5H40V30M50 30h5v5H50V30M60 30h5v5H60V30M65 30h5v5H65V30M80 30h5v5H80V30M85 30h5v5H85V30M100 30h5v5H100V30M105 30h5v5H105V30M110 30h5v5H110V30M135 30h5v5H135V30M140 30h5v5H140V30M150 30h5v5H150V30M160 30h5v5H160V30M165 30h5v5H165V30M170 30h5v5H170V30M180 30h5v5H180V30M20 35h5v5H20V35M30 35h5v5H30V35M35 35h5v5H35V35M40 35h5v5H40V35M50 35h5v5H50V35M60 35h5v5H60V35M65 35h5v5H65V35M75 35h5v5H75V35M80 35h5v5H80V35M90 35h5v5H90V35M100 35h5v5H100V35M115 35h5v5H115V35M120 35h5v5H120V35M125 35h5v5H125V35M130 35h5v5H130V35M140 35h5v5H140V35M150 35h5v5H150V35M160 35h5v5H160V35M165 35h5v5H165V35M170 35h5v5H170V35M180 35h5v5H180V35M20 40h5v5H20V40M30 40h5v5H30V40M35 40h5v5H35V40M40 40h5v5H40V40M50 40h5v5H50V40M60 40h5v5H60V40M65 40h5v5H65V40M70 40h5v5H70V40M80 40h5v5H80V40M95 40h5v5H95V40M110 40h5v5H110V40M125 40h5v5H125V40M140 40h5v5H140V40M150 40h5v5H150V40M160 40h5v5H160V40M165 40h5v5H165V40M170 40h5v5H170V40M180 40h5v5H180V40M20 45h5v5H20V45M50 45h5v5H50V45M60 45h5v5H60V45M85 45h5v5H85V45M95 45h5v5H95V45M100 45h5v5H100V45M120 45h5v5H120V45M150 45h5v5H150V45M180 45h5v5H180V45M20 50h5v5H20V50M25 50h5v5H25V50M30 50h5v5H30V50M35 50h5v5H35V50M40 50h5v5H40V50M45 50h5v5H45V50M50 50h5v5H50V50M60 50h5v5H60V50M70 50h5v5H70V50M80 50h5v5H80V50M90 50h5v5H90V50M100 50h5v5H100V50M110 50h5v5H110V50M120 50h5v5H120V50M130 50h5v5H130V50M140 50h5v5H140V50M150 50h5v5H150V50M155 50h5v5H155V50M160 50h5v5H160V50M165 50h5v5H165V50M170 50h5v5H170V50M175 50h5v5H175V50M180 50h5v5H180V50M60 55h5v5H60V55M65 55h5v5H65V55M70 55h5v5H70V55M75 55h5v5H75V55M90 55h5v5H90V55M95 55h5v5H95V55M110 55h5v5H110V55M125 55h5v5H125V55M20 60h5v5H20V60M30 60h5v5H30V60M35 60h5v5H35V60M40 60h5v5H40V60M45 60h5v5H45V60M50 60h5v5H50V60M65 60h5v5H65V60M70 60h5v5H70V60M80 60h5v5H80V60M90 60h5v5H90V60M95 60h5v5H95V60M105 60h5v5H105V60M130 60h5v5H130V60M150 60h5v5H150V60M155 60h5v5H155V60M160 60h5v5H160V60M165 60h5v5H165V60M170 60h5v5H170V60M25 65h5v5H25V65M30 65h5v5H30V65M35 65h5v5H35V65M45 65h5v5H45V65M70 65h5v5H70V65M75 65h5v5H75V65M110 65h5v5H110V65M115 65h5v5H115V65M120 65h5v5H120V65M125 65h5v5H125V65M135 65h5v5H135V65M150 65h5v5H150V65M155 65h5v5H155V65M165 65h5v5H165V65M170 65h5v5H170V65M25 70h5v5H25V70M40 70h5v5H40V70M45 70h5v5H45V70M50 70h5v5H50V70M55 70h5v5H55V70M95 70h5v5H95V70M100 70h5v5H100V70M110 70h5v5H110V70M120 70h5v5H120V70M125 70h5v5H125V70M145 70h5v5H145V70M160 70h5v5H160V70M170 70h5v5H170V70M175 70h5v5H175V70M20 75h5v5H20V75M30 75h5v5H30V75M35 75h5v5H35V75M45 75h5v5H45V75M70 75h5v5H70V75M75 75h5v5H75V75M90 75h5v5H90V75M100 75h5v5H100V75M115 75h5v5H115V75M120 75h5v5H120V75M125 75h5v5H125V75M130 75h5v5H130V75M160 75h5v5H160V75M165 75h5v5H165V75M170 75h5v5H170V75M175 75h5v5H175V75M20 80h5v5H20V80M45 80h5v5H45V80M50 80h5v5H50V80M55 80h5v5H55V80M65 80h5v5H65V80M70 80h5v5H70V80M75 80h5v5H75V80M80 80h5v5H80V80M110 80h5v5H110V80M125 80h5v5H125V80M140 80h5v5H140V80M145 80h5v5H145V80M155 80h5v5H155V80M160 80h5v5H160V80M165 80h5v5H165V80M180 80h5v5H180V80M20 85h5v5H20V85M35 85h5v5H35V85M40 85h5v5H40V85M55 85h5v5H55V85M65 85h5v5H65V85M70 85h5v5H70V85M85 85h5v5H85V85M90 85h5v5H90V85M95 85h5v5H95V85M100 85h5v5H100V85M105 85h5v5H105V85M120 85h5v5H120V85M130 85h5v5H130V85M135 85h5v5H135V85M145 85h5v5H145V85M150 85h5v5H150V85M170 85h5v5H170V85M175 85h5v5H175V85M180 85h5v5H180V85M20 90h5v5H20V90M25 90h5v5H25V90M30 90h5v5H30V90M35 90h5v5H35V90M45 90h5v5H45V90M50 90h5v5H50V90M60 90h5v5H60V90M65 90h5v5H65V90M90 90h5v5H90V90M110 90h5v5H110V90M115 90h5v5H115V90M125 90h5v5H125V90M130 90h5v5H130V90M140 90h5v5H140V90M145 90h5v5H145V90M150 90h5v5H150V90M155 90h5v5H155V90M160 90h5v5H160V90M165 90h5v5H165V90M175 90h5v5H175V90M30 95h5v5H30V95M35 95h5v5H35V95M40 95h5v5H40V95M45 95h5v5H45V95M60 95h5v5H60V95M65 95h5v5H65V95M75 95h5v5H75V95M80 95h5v5H80V95M85 95h5v5H85V95M100 95h5v5H100V95M110 95h5v5H110V95M115 95h5v5H115V95M120 95h5v5H120V95M125 95h5v5H125V95M140 95h5v5H140V95M145 95h5v5H145V95M150 95h5v5H150V95M160 95h5v5H160V95M170 95h5v5H170V95M20 100h5v5H20V100M45 100h5v5H45V100M50 100h5v5H50V100M60 100h5v5H60V100M70 100h5v5H70V100M75 100h5v5H75V100M80 100h5v5H80V100M105 100h5v5H105V100M115 100h5v5H115V100M130 100h5v5H130V100M140 100h5v5H140V100M145 100h5v5H145V100M155 100h5v5H155V100M160 100h5v5H160V100M180 100h5v5H180V100M25 105h5v5H25V105M30 105h5v5H30V105M40 105h5v5H40V105M45 105h5v5H45V105M60 105h5v5H60V105M65 105h5v5H65V105M80 105h5v5H80V105M90 105h5v5H90V105M100 105h5v5H100V105M105 105h5v5H105V105M115 105h5v5H115V105M120 105h5v5H120V105M135 105h5v5H135V105M150 105h5v5H150V105M155 105h5v5H155V105M165 105h5v5H165V105M170 105h5v5H170V105M180 105h5v5H180V105M25 110h5v5H25V110M30 110h5v5H30V110M40 110h5v5H40V110M45 110h5v5H45V110M50 110h5v5H50V110M70 110h5v5H70V110M75 110h5v5H75V110M85 110h5v5H85V110M95 110h5v5H95V110M100 110h5v5H100V110M105 110h5v5H105V110M130 110h5v5H130V110M140 110h5v5H140V110M155 110h5v5H155V110M160 110h5v5H160V110M170 110h5v5H170V110M175 110h5v5H175V110M35 115h5v5H35V115M45 115h5v5H45V115M65 115h5v5H65V115M70 115h5v5H70V115M75 115h5v5H75V115M85 115h5v5H85V115M95 115h5v5H95V115M105 115h5v5H105V115M110 115h5v5H110V115M115 115h5v5H115V115M120 115h5v5H120V115M145 115h5v5H145V115M150 115h5v5H150V115M155 115h5v5H155V115M160 115h5v5H160V115M165 115h5v5H165V115M170 115h5v5H170V115M180 115h5v5H180V115M20 120h5v5H20V120M30 120h5v5H30V120M50 120h5v5H50V120M55 120h5v5H55V120M65 120h5v5H65V120M75 120h5v5H75V120M85 120h5v5H85V120M100 120h5v5H100V120M115 120h5v5H115V120M120 120h5v5H120V120M125 120h5v5H125V120M130 120h5v5H130V120M145 120h5v5H145V120M155 120h5v5H155V120M160 120h5v5H160V120M165 120h5v5H165V120M175 120h5v5H175V120M180 120h5v5H180V120M20 125h5v5H20V125M25 125h5v5H25V125M35 125h5v5H35V125M40 125h5v5H40V125M45 125h5v5H45V125M70 125h5v5H70V125M75 125h5v5H75V125M85 125h5v5H85V125M95 125h5v5H95V125M110 125h5v5H110V125M135 125h5v5H135V125M150 125h5v5H150V125M165 125h5v5H165V125M180 125h5v5H180V125M20 130h5v5H20V130M30 130h5v5H30V130M45 130h5v5H45V130M50 130h5v5H50V130M55 130h5v5H55V130M75 130h5v5H75V130M85 130h5v5H85V130M90 130h5v5H90V130M95 130h5v5H95V130M100 130h5v5H100V130M120 130h5v5H120V130M125 130h5v5H125V130M145 130h5v5H145V130M165 130h5v5H165V130M170 130h5v5H170V130M175 130h5v5H175V130M20 135h5v5H20V135M30 135h5v5H30V135M40 135h5v5H40V135M70 135h5v5H70V135M75 135h5v5H75V135M90 135h5v5H90V135M95 135h5v5H95V135M125 135h5v5H125V135M130 135h5v5H130V135M140 135h5v5H140V135M150 135h5v5H150V135M155 135h5v5H155V135M165 135h5v5H165V135M170 135h5v5H170V135M20 140h5v5H20V140M45 140h5v5H45V140M50 140h5v5H50V140M60 140h5v5H60V140M80 140h5v5H80V140M85 140h5v5H85V140M95 140h5v5H95V140M105 140h5v5H105V140M130 140h5v5H130V140M140 140h5v5H140V140M145 140h5v5H145V140M150 140h5v5H150V140M155 140h5v5H155V140M160 140h5v5H160V140M170 140h5v5H170V140M175 140h5v5H175V140M180 140h5v5H180V140M60 145h5v5H60V145M65 145h5v5H65V145M75 145h5v5H75V145M80 145h5v5H80V145M85 145h5v5H85V145M100 145h5v5H100V145M110 145h5v5H110V145M115 145h5v5H115V145M125 145h5v5H125V145M135 145h5v5H135V145M140 145h5v5H140V145M160 145h5v5H160V145M170 145h5v5H170V145M20 150h5v5H20V150M25 150h5v5H25V150M30 150h5v5H30V150M35 150h5v5H35V150M40 150h5v5H40V150M45 150h5v5H45V150M50 150h5v5H50V150M80 150h5v5H80V150M95 150h5v5H95V150M110 150h5v5H110V150M120 150h5v5H120V150M125 150h5v5H125V150M135 150h5v5H135V150M140 150h5v5H140V150M150 150h5v5H150V150M160 150h5v5H160V150M170 150h5v5H170V150M175 150h5v5H175V150M20 155h5v5H20V155M50 155h5v5H50V155M60 155h5v5H60V155M70 155h5v5H70V155M80 155h5v5H80V155M90 155h5v5H90V155M100 155h5v5H100V155M115 155h5v5H115V155M120 155h5v5H120V155M125 155h5v5H125V155M130 155h5v5H130V155M135 155h5v5H135V155M140 155h5v5H140V155M160 155h5v5H160V155M165 155h5v5H165V155M170 155h5v5H170V155M175 155h5v5H175V155M180 155h5v5H180V155M20 160h5v5H20V160M30 160h5v5H30V160M35 160h5v5H35V160M40 160h5v5H40V160M50 160h5v5H50V160M60 160h5v5H60V160M65 160h5v5H65V160M75 160h5v5H75V160M85 160h5v5H85V160M110 160h5v5H110V160M125 160h5v5H125V160M140 160h5v5H140V160M145 160h5v5H145V160M150 160h5v5H150V160M155 160h5v5H155V160M160 160h5v5H160V160M165 160h5v5H165V160M175 160h5v5H175V160M180 160h5v5H180V160M20 165h5v5H20V165M30 165h5v5H30V165M35 165h5v5H35V165M40 165h5v5H40V165M50 165h5v5H50V165M60 165h5v5H60V165M95 165h5v5H95V165M100 165h5v5H100V165M120 165h5v5H120V165M130 165h5v5H130V165M135 165h5v5H135V165M145 165h5v5H145V165M160 165h5v5H160V165M165 165h5v5H165V165M180 165h5v5H180V165M20 170h5v5H20V170M30 170h5v5H30V170M35 170h5v5H35V170M40 170h5v5H40V170M50 170h5v5H50V170M60 170h5v5H60V170M70 170h5v5H70V170M75 170h5v5H75V170M90 170h5v5H90V170M105 170h5v5H105V170M110 170h5v5H110V170M115 170h5v5H115V170M130 170h5v5H130V170M140 170h5v5H140V170M145 170h5v5H145V170M150 170h5v5H150V170M155 170h5v5H155V170M170 170h5v5H170V170M20 175h5v5H20V175M50 175h5v5H50V175M65 175h5v5H65V175M70 175h5v5H70V175M85 175h5v5H85V175M90 175h5v5H90V175M100 175h5v5H100V175M110 175h5v5H110V175M115 175h5v5H115V175M120 175h5v5H120V175M125 175h5v5H125V175M160 175h5v5H160V175M165 175h5v5H165V175M170 175h5v5H170V175M20 180h5v5H20V180M25 180h5v5H25V180M30 180h5v5H30V180M35 180h5v5H35V180M40 180h5v5H40V180M45 180h5v5H45V180M50 180h5v5H50V180M60 180h5v5H60V180M70 180h5v5H70V180M75 180h5v5H75V180M80 180h5v5H80V180M105 180h5v5H105V180M110 180h5v5H110V180M115 180h5v5H115V180M130 180h5v5H130V180M135 180h5v5H135V180M140 180h5v5H140V180M145 180h5v5H145V180M150 180h5v5H150V180M155 180h5v5H155V180M175 180h5v5H175V180"/></svg>